        <svg width="472" height="532" viewBox="0 0 472 532" fill="none" xmlns="http://www.w3.org/2000/svg"
            >
            <path
                d="M207.446 36.0443C150.523 -29.2356 44.7641 8.84431 -1 36.0443L-1.00003 574.891L472 574.891L472 419.24C469.388 390.363 444.98 332.608 368.247 332.608C291.514 332.608 274.629 261.912 275.779 226.564C275.779 226.564 278.6 117.644 207.446 36.0443Z"
                fill="#4F34C1" />
            <path
                d="M180.669 114.311C131.059 61.344 38.8853 92.2414 -0.999963 114.311L-0.999982 551.522L411.239 551.522L411.239 425.229C408.963 401.799 387.69 354.937 320.814 354.937C253.938 354.937 239.222 297.576 240.224 268.895C240.224 268.895 242.683 180.52 180.669 114.311Z"
                fill="#6243E3" />
            <path
                d="M174.786 169.429C125.962 119.752 35.2522 148.73 -4.00002 169.429L-4.00004 579.478L401.696 579.478L401.696 461.032C399.455 439.057 378.521 395.106 312.706 395.106C246.891 395.106 232.409 341.309 233.395 314.41C233.395 314.41 235.815 231.524 174.786 169.429Z"
                fill="#5938E7" />
            <path
                d="M167.669 285.905C118.059 238.988 25.8853 266.356 -14 285.905L-14 673.174L398.239 673.174L398.239 561.308C395.963 540.553 374.69 499.045 307.814 499.045C240.938 499.045 226.222 448.236 227.224 422.831C227.224 422.831 229.683 344.551 167.669 285.905Z"
                fill="#6747F0" />
        </svg>