        <svg width="601" height="346" viewBox="0 0 601 346" fill="none" xmlns="http://www.w3.org/2000/svg"
            class="hero-picture-blue">
            <path
                d="M562.441 62.9888C632.275 2.09442 591.539 -111.043 562.441 -160L-14 -160L-14.0001 346L152.51 346C183.402 343.206 245.187 317.095 245.187 235.009C245.187 152.922 320.815 134.859 358.629 136.089C358.629 136.089 475.148 139.107 562.441 62.9888Z"
                fill="#6746F2" />
            <path
                d="M478.714 34.344C535.376 -18.728 502.323 -117.332 478.714 -160L11 -160L11 281L146.103 281C171.169 278.565 221.3 255.808 221.3 184.266C221.3 112.724 282.663 96.9821 313.345 98.0537C313.345 98.0537 407.886 100.684 478.714 34.344Z"
                fill="#6243E3" />
            <path
                d="M417.657 38.2591C470.8 -13.9704 439.8 -111.009 417.657 -153L-21 -153L-21 281L105.71 281C129.218 278.603 176.235 256.208 176.235 185.802C176.235 115.395 233.786 99.903 262.562 100.958C262.562 100.958 351.23 103.546 417.657 38.2591Z"
                fill="#6747F0" />
            <path
                d="M323.288 34.344C373.478 -18.728 344.2 -117.332 323.288 -160L-91 -160L-91 281L28.6708 281C50.873 278.565 95.2774 255.808 95.2774 184.266C95.2774 112.724 149.631 96.9821 176.808 98.0537C176.808 98.0537 260.55 100.684 323.288 34.344Z"
                fill="#4F34C1" />
        </svg>