<svg width="933" height="716" viewBox="0 0 933 716" fill="none" xmlns="http://www.w3.org/2000/svg">
            <mask id="mask0" mask-type="alpha" maskUnits="userSpaceOnUse" x="0" y="0" width="933" height="766">
                <path
                    d="M58.497 428.432C-47.4467 520.616 14.3538 691.887 58.497 766H933V0H680.392C633.526 4.23017 539.795 43.7569 539.795 168.023C539.795 292.288 425.061 319.632 367.694 317.771C367.694 317.771 190.927 313.202 58.497 428.432Z"
                    fill="#07FFE6" />
            </mask>
            <g mask="url(#mask0)">
                <path
                    d="M19.7697 408.739C-92.1012 506.301 -26.8432 687.564 19.7697 766H943.197V-44.6867H676.456C626.969 -40.2097 527.993 1.62292 527.993 133.138C527.993 264.653 406.841 293.592 346.265 291.622C346.265 291.622 159.608 286.787 19.7697 408.739Z"
                    fill="#07FFE6" />
                <path
                    d="M155.039 447.382C60.7912 534.391 115.769 696.048 155.039 766H933V43H708.279C666.587 46.9927 583.203 84.3006 583.203 201.59C583.203 318.88 481.136 344.689 430.102 342.932C430.102 342.932 272.849 338.62 155.039 447.382Z"
                    fill="#24FBE5" />
                <path
                    d="M251.537 482.388C166.402 566.172 216.065 721.835 251.537 789.193H954.277V93H751.284C713.623 96.8447 638.302 132.769 638.302 245.71C638.302 358.652 546.103 383.503 500.004 381.812C500.004 381.812 357.956 377.66 251.537 482.388Z"
                    fill="#20F0DB" />
                <path
                    d="M364.402 516.586C283.985 601.702 330.895 759.843 364.402 828.273H1028.2V121H836.454C800.88 124.906 729.733 161.402 729.733 276.141C729.733 390.879 642.644 416.127 599.099 414.408C599.099 414.408 464.924 410.19 364.402 516.586Z"
                    fill="#1AE2CE" />
            </g>
        </svg>