<svg width="313" height="260" viewBox="0 0 313 260" fill="none" xmlns="http://www.w3.org/2000/svg"
            >
            <g clip-path="url(#clip0)">
                <path
                    d="M92.9998 123.213C119.627 123.213 141.213 101.627 141.213 74.9998C141.213 48.3726 119.627 26.787 92.9998 26.787C66.3726 26.787 44.787 48.3726 44.787 74.9998C44.787 101.627 66.3726 123.213 92.9998 123.213Z"
                    fill="#FF7C48" />
                <path
                    d="M92.9998 26.787V123.213C119.627 123.213 141.213 101.627 141.213 75.0001C141.213 48.3729 119.627 26.787 92.9998 26.787Z"
                    fill="#FF415B" />
                <path
                    d="M152.537 104.299L140.592 97.4026C143.212 91.8587 144.891 85.7875 145.422 79.3946H152.781V84.2165H161.571V65.7834H152.781V70.6054H145.422C144.891 64.2125 143.212 58.1412 140.592 52.5974L152.537 45.7008L155.536 50.8952L163.148 46.5004L152.755 28.5L145.143 32.8948L148.142 38.0891L136.185 44.993C132.607 39.8602 128.14 35.3931 123.007 31.8157L126.697 25.4255L130.872 27.8364L135.267 20.2247L119.304 11.0074L114.909 18.6191L119.085 21.0301L115.402 27.4081C109.858 24.7879 103.787 23.1088 97.3944 22.5774V8.78953H103.392V0H82.6072V8.78953H88.6051V22.5774C82.2122 23.1085 76.141 24.7879 70.5971 27.4081L66.9149 21.0301L71.0905 18.6191L66.6958 11.0074L50.7325 20.2241L55.1273 27.8358L59.3029 25.4249L62.9924 31.8152C57.8597 35.3925 53.3925 39.8599 49.8149 44.9924L37.857 38.0885L40.856 32.8942L33.2443 28.4995L22.8516 46.5001L30.4633 50.8949L33.4623 45.7006L45.4075 52.5971C42.7874 58.141 41.1083 64.2122 40.5771 70.6051H33.2179V65.7832H24.4284V84.2163H33.2179V79.3943H40.5771C41.1083 85.7872 42.7877 91.8585 45.4075 97.4023L33.4623 104.299L30.4636 99.1048L22.8519 103.5L33.2443 121.5L40.856 117.105L37.857 111.911L49.8149 105.007C53.3922 110.14 57.8597 114.607 62.9922 118.185L59.3026 124.575L55.127 122.164L50.7322 129.776L66.6955 138.992L71.0902 131.381L66.9146 128.97L70.5969 122.592C76.1407 125.212 82.2119 126.891 88.6048 127.422V141.21H82.6069V150H103.392V141.21H97.3941V127.422C103.787 126.891 109.858 125.212 115.402 122.592L119.084 128.97L114.909 131.381L119.303 138.992L135.267 129.776L130.872 122.164L126.696 124.575L123.007 118.185C128.14 114.607 132.607 110.14 136.184 105.007L148.142 111.911L145.143 117.105L152.755 121.5L163.147 103.5L155.535 99.1051L152.537 104.299ZM92.9996 118.818C68.8381 118.818 49.1815 99.1614 49.1815 74.9998C49.1815 50.8383 68.8381 31.1817 92.9996 31.1817C117.161 31.1817 136.818 50.8383 136.818 74.9998C136.818 99.1614 117.161 118.818 92.9996 118.818Z"
                    fill="#FF415B" />
                <path
                    d="M110.881 72.2156C117.799 72.2156 123.406 66.608 123.406 59.6906C123.406 52.7731 117.799 47.1655 110.881 47.1655C103.964 47.1655 98.3562 52.7731 98.3562 59.6906C98.3562 66.608 103.964 72.2156 110.881 72.2156Z"
                    fill="#FFB655" />
                <path
                    d="M108.387 106.438C113.344 101.481 113.344 93.4432 108.387 88.4859C103.429 83.5286 95.392 83.5286 90.4347 88.4859C85.4774 93.4432 85.4774 101.481 90.4347 106.438C95.392 111.395 103.429 111.395 108.387 106.438Z"
                    fill="#FFB655" />
                <path
                    d="M71.8168 82.3242C79.4353 82.3242 85.6114 76.1481 85.6114 68.5296C85.6114 60.9111 79.4353 54.735 71.8168 54.735C64.1983 54.735 58.0222 60.9111 58.0222 68.5296C58.0222 76.1481 64.1983 82.3242 71.8168 82.3242Z"
                    fill="#FFB655" />
                <path
                    d="M110.881 72.2156C117.799 72.2156 123.406 66.608 123.406 59.6906C123.406 52.7731 117.799 47.1655 110.881 47.1655C103.964 47.1655 98.3562 52.7731 98.3562 59.6906C98.3562 66.608 103.964 72.2156 110.881 72.2156Z"
                    fill="#FF7C48" />
                <path
                    d="M152.537 104.299L140.592 97.4026C143.212 91.8588 144.891 85.7875 145.422 79.3946H152.782V84.2166H161.571V65.7835H152.782V70.6054H145.422C144.891 64.2125 143.212 58.1413 140.592 52.5974L152.537 45.7008L155.536 50.8952L163.148 46.5004L152.755 28.5L145.144 32.8948L148.143 38.0891L136.185 44.993C132.608 39.8602 128.14 35.3931 123.007 31.8157L126.697 25.4255L130.872 27.8364L135.267 20.2247L119.304 11.0074L114.909 18.6191L119.085 21.0301L115.403 27.4081C109.859 24.7879 103.788 23.1088 97.3946 22.5774V8.78953H103.393V0H92.9998V31.1817C117.161 31.1817 136.818 50.8383 136.818 74.9999C136.818 99.1614 117.161 118.818 92.9998 118.818V150H103.393V141.21H97.3946V127.422C103.788 126.891 109.859 125.212 115.403 122.592L119.085 128.97L114.909 131.381L119.304 138.992L135.267 129.776L130.872 122.164L126.697 124.575L123.007 118.185C128.14 114.607 132.607 110.14 136.185 105.007L148.142 111.911L145.143 117.105L152.755 121.5L163.148 103.5L155.536 99.1051L152.537 104.299Z"
                    fill="#E50058" />
                <path
                    d="M112.126 97.4635C112.126 90.463 106.431 84.7677 99.43 84.7677C97.0846 84.7677 94.8876 85.4093 93.0002 86.5229V108.404C94.8873 109.518 97.0846 110.159 99.43 110.159C106.43 110.159 112.126 104.464 112.126 97.4635Z"
                    fill="#FF7C48" />
            </g>
            <g clip-path="url(#clip1)">
                <path
                    d="M238 214.213C264.627 214.213 286.213 192.627 286.213 166C286.213 139.373 264.627 117.787 238 117.787C211.373 117.787 189.787 139.373 189.787 166C189.787 192.627 211.373 214.213 238 214.213Z"
                    fill="#FF7C48" />
                <path
                    d="M238 117.787V214.213C264.627 214.213 286.213 192.627 286.213 166C286.213 139.373 264.627 117.787 238 117.787Z"
                    fill="#FF415B" />
                <path
                    d="M297.537 195.299L285.592 188.403C288.212 182.859 289.891 176.788 290.422 170.395H297.781V175.217H306.571V156.783H297.781V161.605H290.422C289.891 155.212 288.212 149.141 285.592 143.597L297.537 136.701L300.536 141.895L308.148 137.5L297.755 119.5L290.143 123.895L293.142 129.089L281.185 135.993C277.607 130.86 273.14 126.393 268.007 122.816L271.697 116.425L275.872 118.836L280.267 111.225L264.304 102.007L259.909 109.619L264.085 112.03L260.402 118.408C254.858 115.788 248.787 114.109 242.394 113.577V99.7895H248.392V91H227.607V99.7895H233.605V113.577C227.212 114.109 221.141 115.788 215.597 118.408L211.915 112.03L216.091 109.619L211.696 102.007L195.733 111.224L200.127 118.836L204.303 116.425L207.992 122.815C202.86 126.392 198.393 130.86 194.815 135.992L182.857 129.089L185.856 123.894L178.244 119.499L167.852 137.5L175.463 141.895L178.462 136.701L190.408 143.597C187.787 149.141 186.108 155.212 185.577 161.605H178.218V156.783H169.428V175.216H178.218V170.394H185.577C186.108 176.787 187.788 182.858 190.408 188.402L178.462 195.299L175.464 190.105L167.852 194.5L178.244 212.5L185.856 208.105L182.857 202.911L194.815 196.007C198.392 201.14 202.86 205.607 207.992 209.185L204.303 215.575L200.127 213.164L195.732 220.776L211.695 229.992L216.09 222.381L211.915 219.97L215.597 213.592C221.141 216.212 227.212 217.891 233.605 218.422V232.21H227.607V241H248.392V232.21H242.394V218.422C248.787 217.891 254.858 216.212 260.402 213.592L264.084 219.97L259.909 222.381L264.303 229.992L280.267 220.776L275.872 213.164L271.696 215.575L268.007 209.185C273.14 205.607 277.607 201.14 281.184 196.007L293.142 202.911L290.143 208.105L297.755 212.5L308.147 194.5L300.535 190.105L297.537 195.299ZM238 209.818C213.838 209.818 194.181 190.161 194.181 166C194.181 141.838 213.838 122.182 238 122.182C262.161 122.182 281.818 141.838 281.818 166C281.818 190.161 262.161 209.818 238 209.818Z"
                    fill="#FF415B" />
                <path
                    d="M255.881 163.216C262.799 163.216 268.406 157.608 268.406 150.691C268.406 143.773 262.799 138.165 255.881 138.165C248.964 138.165 243.356 143.773 243.356 150.691C243.356 157.608 248.964 163.216 255.881 163.216Z"
                    fill="#FFB655" />
                <path
                    d="M253.387 197.438C258.344 192.481 258.344 184.443 253.387 179.486C248.429 174.529 240.392 174.529 235.435 179.486C230.477 184.443 230.477 192.481 235.435 197.438C240.392 202.395 248.429 202.395 253.387 197.438Z"
                    fill="#FFB655" />
                <path
                    d="M216.817 173.324C224.435 173.324 230.611 167.148 230.611 159.53C230.611 151.911 224.435 145.735 216.817 145.735C209.198 145.735 203.022 151.911 203.022 159.53C203.022 167.148 209.198 173.324 216.817 173.324Z"
                    fill="#FFB655" />
                <path
                    d="M255.881 163.216C262.799 163.216 268.406 157.608 268.406 150.691C268.406 143.773 262.799 138.165 255.881 138.165C248.964 138.165 243.356 143.773 243.356 150.691C243.356 157.608 248.964 163.216 255.881 163.216Z"
                    fill="#FF7C48" />
                <path
                    d="M297.537 195.299L285.592 188.403C288.212 182.859 289.891 176.788 290.422 170.395H297.782V175.217H306.571V156.783H297.782V161.605H290.422C289.891 155.212 288.212 149.141 285.592 143.597L297.537 136.701L300.536 141.895L308.148 137.5L297.755 119.5L290.144 123.895L293.143 129.089L281.185 135.993C277.608 130.86 273.14 126.393 268.007 122.816L271.697 116.425L275.872 118.836L280.267 111.225L264.304 102.007L259.909 109.619L264.085 112.03L260.403 118.408C254.859 115.788 248.788 114.109 242.395 113.577V99.7895H248.393V91H238V122.182C262.161 122.182 281.818 141.838 281.818 166C281.818 190.161 262.161 209.818 238 209.818V241H248.393V232.21H242.395V218.422C248.788 217.891 254.859 216.212 260.403 213.592L264.085 219.97L259.909 222.381L264.304 229.992L280.267 220.776L275.872 213.164L271.697 215.575L268.007 209.185C273.14 205.607 277.607 201.14 281.185 196.007L293.142 202.911L290.143 208.105L297.755 212.5L308.148 194.5L300.536 190.105L297.537 195.299Z"
                    fill="#E50058" />
                <path
                    d="M257.126 188.464C257.126 181.463 251.431 175.768 244.43 175.768C242.085 175.768 239.888 176.409 238 177.523V199.404C239.887 200.518 242.085 201.159 244.43 201.159C251.43 201.159 257.126 195.464 257.126 188.464Z"
                    fill="#FF7C48" />
            </g>
            <g clip-path="url(#clip2)">
                <path
                    d="M-4.00014 240.356C15.5265 240.356 31.356 224.527 31.356 205C31.356 185.473 15.5265 169.644 -4.00014 169.644C-23.5268 169.644 -39.3563 185.473 -39.3563 205C-39.3563 224.527 -23.5268 240.356 -4.00014 240.356Z"
                    fill="#FF7C48" />
                <path
                    d="M-4.00012 169.644V240.356C15.5266 240.356 31.356 224.527 31.356 205C31.356 185.473 15.5266 169.644 -4.00012 169.644Z"
                    fill="#FF415B" />
                <path
                    d="M39.6604 226.486L30.9005 221.429C32.822 217.363 34.0533 212.911 34.4428 208.223H39.8396V211.759H46.2852V198.241H39.8396V201.777H34.4428C34.0533 197.089 32.8218 192.637 30.9005 188.571L39.6604 183.514L41.8596 187.323L47.4416 184.1L39.8205 170.9L34.2385 174.123L36.4378 177.932L27.6687 182.995C25.0453 179.231 21.7692 175.955 18.0051 173.332L20.7108 168.645L23.7729 170.413L26.9958 164.831L15.2894 158.072L12.0666 163.654L15.1287 165.422L12.4284 170.099C8.36288 168.178 3.91065 166.946 -0.777489 166.557V156.446H3.62103V150H-11.6214V156.446H-7.22292V166.557C-11.9111 166.946 -16.3633 168.178 -20.4288 170.099L-23.1291 165.422L-20.067 163.654L-23.2898 158.072L-34.9962 164.831L-31.7733 170.413L-28.7112 168.645L-26.0056 173.331C-29.7696 175.954 -33.0455 179.231 -35.6691 182.994L-44.4382 177.932L-42.2389 174.122L-47.8209 170.9L-55.4422 184.1L-49.8603 187.323L-47.661 183.514L-38.9012 188.571C-40.8226 192.637 -42.0539 197.089 -42.4435 201.777H-47.8402V198.241H-54.2858V211.759H-47.8402V208.222H-42.4435C-42.0539 212.911 -40.8224 217.363 -38.9012 221.428L-47.661 226.486L-49.8601 222.677L-55.442 225.9L-47.8209 239.1L-42.2389 235.877L-44.4382 232.068L-35.6691 227.005C-33.0457 230.769 -29.7696 234.045 -26.0058 236.669L-28.7114 241.355L-31.7736 239.587L-34.9964 245.169L-23.29 251.928L-20.0672 246.346L-23.1293 244.578L-20.429 239.901C-16.3635 241.822 -11.9113 243.053 -7.22314 243.443V253.554H-11.6216V260H3.62081V253.554H-0.777702V243.443C3.91043 243.054 8.36266 241.822 12.4282 239.901L15.1284 244.578L12.0663 246.346L15.2892 251.928L26.9955 245.169L23.7727 239.587L20.7106 241.355L18.0049 236.669C21.769 234.045 25.0449 230.769 27.6683 227.005L36.4373 232.068L34.2381 235.877L39.82 239.1L47.4411 225.9L41.8592 222.677L39.6604 226.486ZM-4.00031 237.133C-21.7188 237.133 -36.1336 222.718 -36.1336 205C-36.1336 187.281 -21.7188 172.867 -4.00031 172.867C13.7181 172.867 28.133 187.281 28.133 205C28.133 222.718 13.7181 237.133 -4.00031 237.133Z"
                    fill="#FF415B" />
                <path
                    d="M9.11291 202.958C14.1857 202.958 18.298 198.846 18.298 193.773C18.298 188.7 14.1857 184.588 9.11291 184.588C4.04015 184.588 -0.0721436 188.7 -0.0721436 193.773C-0.0721436 198.846 4.04015 202.958 9.11291 202.958Z"
                    fill="#FFB655" />
                <path
                    d="M7.28355 228.054C10.9189 224.419 10.9189 218.525 7.28355 214.89C3.64819 211.254 -2.24588 211.254 -5.88123 214.89C-9.51659 218.525 -9.51659 224.419 -5.88124 228.054C-2.24588 231.69 3.64819 231.69 7.28355 228.054Z"
                    fill="#FFB655" />
                <path
                    d="M9.11291 202.958C14.1857 202.958 18.298 198.846 18.298 193.773C18.298 188.7 14.1857 184.588 9.11291 184.588C4.04014 184.588 -0.0721436 188.7 -0.0721436 193.773C-0.0721436 198.846 4.04014 202.958 9.11291 202.958Z"
                    fill="#FF7C48" />
                <path
                    d="M39.6606 226.486L30.9007 221.429C32.8222 217.363 34.0535 212.911 34.443 208.223H39.8398V211.759H46.2854V198.241H39.8398V201.777H34.443C34.0535 197.089 32.8219 192.637 30.9007 188.571L39.6606 183.514L41.8598 187.323L47.4418 184.1L39.8206 170.9L34.2387 174.123L36.438 177.932L27.6689 182.995C25.0455 179.231 21.7694 175.955 18.0053 173.332L20.711 168.645L23.7731 170.413L26.9959 164.831L15.2896 158.072L12.0667 163.654L15.1289 165.422L12.4286 170.099C8.36307 168.178 3.91084 166.946 -0.777297 166.557V156.446H3.62122V150H-4.00012V172.867C13.7183 172.867 28.1332 187.281 28.1332 205C28.1332 222.718 13.7183 237.133 -4.00012 237.133V260H3.62122V253.554H-0.777297V243.443C3.91084 243.054 8.36307 241.822 12.4286 239.901L15.1289 244.578L12.0667 246.346L15.2896 251.928L26.9959 245.169L23.7731 239.587L20.711 241.355L18.0053 236.669C21.7694 234.045 25.0453 230.769 27.6686 227.005L36.4377 232.068L34.2385 235.877L39.8204 239.1L47.4415 225.9L41.8596 222.677L39.6606 226.486Z"
                    fill="#E50058" />
                <path
                    d="M10.0256 221.473C10.0256 216.34 5.84908 212.163 0.715334 212.163C-1.00458 212.163 -2.61578 212.633 -3.99988 213.45V229.497C-2.616 230.313 -1.00458 230.784 0.715334 230.784C5.84887 230.784 10.0256 226.607 10.0256 221.473Z"
                    fill="#FF7C48" />
            </g>
            <defs>
                <clipPath id="clip0">
                    <rect x="18" width="150" height="150" fill="white" />
                </clipPath>
                <clipPath id="clip1">
                    <rect x="163" y="91" width="150" height="150" fill="white" />
                </clipPath>
                <clipPath id="clip2">
                    <rect x="-59" y="150" width="110" height="110" fill="white" />
                </clipPath>
            </defs>
        </svg>